<svg xmlns="http://www.w3.org/2000/svg" xmlns:xlink="http://www.w3.org/1999/xlink" version="1.1" width="256" height="256" viewBox="0 0 256 256" xml:space="preserve">
<desc>Created with Fabric.js 1.7.22</desc>
<defs>
</defs>
<g transform="translate(128 128) scale(0.72 0.72)" style="">
	<g style="stroke: none; stroke-width: 0; stroke-dasharray: none; stroke-linecap: butt; stroke-linejoin: miter; stroke-miterlimit: 10; fill: none; fill-rule: nonzero; opacity: 1;" transform="translate(-175.05 -175.05000000000004) scale(3.89 3.89)" >
	<ellipse cx="59.792" cy="39.156000000000006" rx="1.692" ry="1.706" style="stroke: none; stroke-width: 1; stroke-dasharray: none; stroke-linecap: butt; stroke-linejoin: miter; stroke-miterlimit: 10; fill: rgb(0,0,0); fill-rule: nonzero; opacity: 1;" transform=" matrix(1 0 0 1 0 0) "/>
	<path d="M 60.254 64.661 H 27.39 c -3.517 0 -6.378 -2.877 -6.378 -6.414 V 37.992 c 0 -3.537 2.861 -6.415 6.378 -6.415 h 2.383 c 0.239 0 0.474 -0.042 0.698 -0.124 c 1.036 -0.379 2.186 0.152 2.565 1.19 c 0.38 1.037 -0.153 2.186 -1.19 2.565 c -0.666 0.244 -1.364 0.368 -2.073 0.368 H 27.39 c -1.312 0 -2.378 1.083 -2.378 2.415 v 20.255 c 0 1.331 1.067 2.414 2.378 2.414 h 32.864 c 1.104 0 2 0.896 2 2 S 61.358 64.661 60.254 64.661 z" style="stroke: none; stroke-width: 1; stroke-dasharray: none; stroke-linecap: butt; stroke-linejoin: miter; stroke-miterlimit: 10; fill: rgb(0,0,0); fill-rule: nonzero; opacity: 1;" transform=" matrix(1 0 0 1 0 0) " stroke-linecap="round" />
	<path d="M 45 59.257 c -6.559 0 -11.895 -5.372 -11.895 -11.975 c 0 -3.196 1.235 -6.202 3.478 -8.462 c 0.778 -0.785 2.045 -0.79 2.828 -0.012 c 0.785 0.778 0.79 2.044 0.012 2.828 c -1.495 1.507 -2.318 3.512 -2.318 5.646 c 0 4.397 3.542 7.975 7.895 7.975 c 2.105 0 4.086 -0.827 5.576 -2.329 c 0.777 -0.785 2.044 -0.791 2.828 -0.012 c 0.784 0.777 0.79 2.044 0.012 2.828 C 51.169 58.01 48.181 59.257 45 59.257 z" style="stroke: none; stroke-width: 1; stroke-dasharray: none; stroke-linecap: butt; stroke-linejoin: miter; stroke-miterlimit: 10; fill: rgb(0,0,0); fill-rule: nonzero; opacity: 1;" transform=" matrix(1 0 0 1 0 0) " stroke-linecap="round" />
	<path d="M 66.157 62.833 c -0.403 0 -0.812 -0.122 -1.164 -0.375 c -0.897 -0.645 -1.103 -1.894 -0.459 -2.791 c 0.297 -0.414 0.454 -0.905 0.454 -1.42 V 37.992 c 0 -1.332 -1.066 -2.415 -2.378 -2.415 h -2.383 c -2.245 0 -4.296 -1.237 -5.352 -3.229 l -0.72 -1.358 c -0.54 -1.019 -1.585 -1.652 -2.727 -1.652 H 38.57 c -0.899 0 -1.753 0.396 -2.341 1.084 c -0.717 0.84 -1.979 0.94 -2.819 0.223 c -0.84 -0.717 -0.94 -1.979 -0.223 -2.819 c 1.349 -1.581 3.312 -2.488 5.383 -2.488 H 51.43 c 2.626 0 5.024 1.448 6.261 3.779 l 0.72 1.358 c 0.36 0.679 1.057 1.102 1.817 1.102 h 2.383 c 3.517 0 6.378 2.877 6.378 6.415 v 20.255 c 0 1.357 -0.416 2.654 -1.204 3.752 C 67.394 62.543 66.78 62.833 66.157 62.833 z" style="stroke: none; stroke-width: 1; stroke-dasharray: none; stroke-linecap: butt; stroke-linejoin: miter; stroke-miterlimit: 10; fill: rgb(0,0,0); fill-rule: nonzero; opacity: 1;" transform=" matrix(1 0 0 1 0 0) " stroke-linecap="round" />
	<path d="M 54.715 51.196 c -0.125 0 -0.252 -0.012 -0.379 -0.036 c -1.085 -0.208 -1.796 -1.257 -1.587 -2.341 c 0.097 -0.504 0.146 -1.021 0.146 -1.537 c 0 -4.398 -3.541 -7.976 -7.895 -7.976 c -0.532 0 -1.063 0.053 -1.577 0.159 c -1.083 0.225 -2.139 -0.476 -2.361 -1.558 c -0.221 -1.083 0.476 -2.139 1.558 -2.361 c 0.778 -0.159 1.578 -0.24 2.379 -0.24 c 6.559 0 11.895 5.372 11.895 11.976 c 0 0.77 -0.073 1.54 -0.218 2.291 C 56.493 50.531 55.655 51.196 54.715 51.196 z" style="stroke: none; stroke-width: 1; stroke-dasharray: none; stroke-linecap: butt; stroke-linejoin: miter; stroke-miterlimit: 10; fill: rgb(0,0,0); fill-rule: nonzero; opacity: 1;" transform=" matrix(1 0 0 1 0 0) " stroke-linecap="round" />
	<path d="M 74.187 78.594 c -0.513 0 -1.026 -0.196 -1.417 -0.589 L 12.103 17.104 c -0.779 -0.783 -0.777 -2.049 0.005 -2.829 c 0.783 -0.779 2.049 -0.776 2.829 0.005 l 60.667 60.902 c 0.779 0.782 0.777 2.049 -0.006 2.828 C 75.208 78.399 74.697 78.594 74.187 78.594 z" style="stroke: none; stroke-width: 1; stroke-dasharray: none; stroke-linecap: butt; stroke-linejoin: miter; stroke-miterlimit: 10; fill: rgb(0,0,0); fill-rule: nonzero; opacity: 1;" transform=" matrix(1 0 0 1 0 0) " stroke-linecap="round" />
	<path d="M 45 90 C 20.187 90 0 69.813 0 45 C 0 20.187 20.187 0 45 0 c 24.813 0 45 20.187 45 45 C 90 69.813 69.813 90 45 90 z M 45 4 C 22.393 4 4 22.393 4 45 s 18.393 41 41 41 s 41 -18.393 41 -41 S 67.607 4 45 4 z" style="stroke: none; stroke-width: 1; stroke-dasharray: none; stroke-linecap: butt; stroke-linejoin: miter; stroke-miterlimit: 10; fill: rgb(0,0,0); fill-rule: nonzero; opacity: 1;" transform=" matrix(1 0 0 1 0 0) " stroke-linecap="round" />
</g>
</g>
</svg>